<svg xmlns="http://www.w3.org/2000/svg" viewBox="0 0 64 64" fill="none">
  <rect width="64" height="64" rx="14" fill="#0f172a"/>
  <circle cx="32" cy="32" r="24" fill="url(#g)" />
  <path
    fill="#ffffff"
    d="M18 24h28a3 3 0 0 1 3 3v8a1.5 1.5 0 0 1-1.5 1.5H47v3h-6v-3H23v3h-6v-3h-1.5A1.5 1.5 0 0 1 15 35v-8a3 3 0 0 1 3-3zm4 18a3 3 0 1 0 0-6 3 3 0 0 0 0 6zm20 0a3 3 0 1 0 0-6 3 3 0 0 0 0 6zM22 27h20v5H22v-5z"
  />
  <path
    stroke="#93c5fd"
    stroke-width="2"
    stroke-linecap="round"
    d="M12 46c8-6 16-6 24 0s16 6 24 0"
    opacity="0.55"
  />
  <defs>
    <linearGradient id="g" x1="8" y1="8" x2="56" y2="56" gradientUnits="userSpaceOnUse">
      <stop stop-color="#3b82f6"/>
      <stop offset="1" stop-color="#1d4ed8"/>
    </linearGradient>
  </defs>
</svg>
